<?xml version="1.0" encoding="UTF-8"?>
<svg width="50px" height="50px" viewBox="0 0 50 50" version="1.1" xmlns="http://www.w3.org/2000/svg" xmlns:xlink="http://www.w3.org/1999/xlink">
    <!-- Generator: Sketch 52.6 (67491) - http://www.bohemiancoding.com/sketch -->
    <title>uikonf</title>
    <desc>Created with Sketch.</desc>
    <defs>
        <polygon id="path-1" points="0 0 39.2857143 0 39.2857143 19.8214286 0 19.8214286"></polygon>
        <path d="M25,50 C38.8071176,50 50,38.8071176 50,25 C50,11.1928824 38.8071176,0 25,0 C11.1928824,0 0,11.1928824 0,25 C0,38.8071176 11.1928824,50 25,50 Z M13.2867549,27.0165098 L13.2867549,19.5728824 L11.2776569,19.5728824 L11.2776569,26.9284216 C11.2776569,28.2350882 11.0136863,28.6755392 10.0897941,28.6755392 C9.13656471,28.6755392 8.90192549,28.2204118 8.90192549,26.9284216 L8.90192549,19.5728824 L6.83416176,19.5728824 L6.83416176,27.0165098 C6.83416176,28.2204118 6.92215196,29.2334412 7.61140588,29.8647549 C8.09535098,30.3198922 8.90192549,30.5841667 10.0457941,30.5841667 C11.2336569,30.5841667 12.054902,30.2905294 12.5388431,29.8353922 C13.2134314,29.2040784 13.2867549,28.191049 13.2867549,27.0165098 Z M16.8595098,19.5728824 L14.8064118,19.5728824 L14.8064118,30.4520294 L16.8595098,30.4520294 L16.8595098,19.5728824 Z M20.4762647,27.824 L21.1948529,26.2090196 L22.6466863,30.4520294 L24.8317647,30.4520294 L22.5586961,23.8746275 L24.6997843,19.5728824 L22.5146961,19.5728824 L20.4762647,23.9480294 L20.4762647,19.5728824 L18.4525,19.5728824 L18.4525,30.4520294 L20.4762647,30.4520294 L20.4762647,27.824 Z M34.1133725,25.557902 C34.1133725,24.5008235 34.2453627,24.0603725 35.0372647,24.0603725 C35.6531961,24.0603725 35.7998431,24.2659118 35.7998431,25.3817255 L35.7998431,30.5496863 L37.7942843,30.5496863 L37.7942843,24.6476373 C37.7942843,23.8107843 37.6916275,23.1501078 37.3250098,22.6949706 C37.0317059,22.3426078 36.5917549,22.1370686 35.6385294,22.1370686 C34.7586373,22.1370686 34.1427059,22.3572941 33.8787353,22.7243333 L33.7760784,22.2398431 L32.133598,22.3426078 L32.133598,30.5496863 L34.1133725,30.5496863 L34.1133725,25.557902 Z M39.6219118,30.5496863 L41.6016863,30.5496863 L41.6016863,24.0163235 L43.0095196,24.0163235 L43.0095196,22.2398431 L41.6016863,22.2398431 L41.6016863,21.8581176 C41.6016863,21.3295784 41.719,21.1533922 42.4375882,21.1387157 L43.0095196,21.1387157 L43.0095196,19.347549 C42.8775392,19.3328627 42.642902,19.3181863 42.305598,19.3181863 C40.3844902,19.3181863 39.6219118,19.9935392 39.6219118,21.5938431 L39.6219118,22.2398431 L38.6100294,22.2398431 L38.6100294,24.0163235 L39.6219118,24.0163235 L39.6219118,30.5496863 Z M28.0672353,22.0394118 C27.0406863,22.0394118 26.3660882,22.3477255 25.9261471,22.8028627 C25.1928922,23.5516275 25.104902,24.7555294 25.104902,26.2824216 C25.104902,27.8533627 25.2075588,29.0866275 25.9848039,29.8207157 C26.4247549,30.2464804 27.0700098,30.5254314 28.0672353,30.5254314 C29.064451,30.5254314 29.7243725,30.2318039 30.1496569,29.7913529 C30.9122353,29.0572647 31.0148922,27.8386863 31.0148922,26.2824216 C31.0148922,24.7702059 30.926902,23.5663137 30.2229804,22.8175392 C29.7830392,22.3624118 29.1084412,22.0394118 28.0672353,22.0394118 Z M28.0672353,28.7342647 C27.1726667,28.7342647 27.0993431,28.147 27.0993431,26.3558333 C27.0993431,24.5499804 27.1726667,23.9627157 28.0672353,23.9627157 C28.9324706,23.9627157 29.0057941,24.5499804 29.0057941,26.3558333 C29.0057941,28.147 28.9324706,28.7342647 28.0672353,28.7342647 Z" id="path-3"></path>
    </defs>
    <g id="Page-1" stroke="none" stroke-width="1" fill="none" fill-rule="evenodd">
        <g id="uikonf">
            <g id="Group-3" transform="translate(5.357143, 15.714286)">
                <mask id="mask-2" fill="white">
                    <use xlink:href="#path-1"></use>
                </mask>
                <g id="Clip-2"></g>
                <polygon id="Fill-1" fill="#449BFC" mask="url(#mask-2)" points="-0.357142857 -0.178571429 39.6428571 -0.178571429 39.6428571 20 -0.357142857 20"></polygon>
            </g>
            <g id="Group-9">
                <mask id="mask-4" fill="white">
                    <use xlink:href="#path-3"></use>
                </mask>
                <g id="Clip-8"></g>
                <polygon id="Fill-7" fill="#FFFFFF" mask="url(#mask-4)" points="-0.490196078 -0.490196078 50.4901961 -0.490196078 50.4901961 50.4901961 -0.490196078 50.4901961"></polygon>
            </g>
        </g>
    </g>
</svg>